<?xml version="1.0" encoding="iso-8859-1"?>
<!-- Generator: Adobe Illustrator 22.0.1, SVG Export Plug-In . SVG Version: 6.00 Build 0)  -->
<svg version="1.1" id="Layer_1" xmlns="http://www.w3.org/2000/svg" xmlns:xlink="http://www.w3.org/1999/xlink" x="0px" y="0px"
	 viewBox="0 0 506.845 294.777" style="enable-background:new 0 0 506.845 294.777;" xml:space="preserve">
<g>
	<rect style="fill:none;" width="506.845" height="294.777"/>
	<g>
		<g>
			<g>
				<g>
					<g>
						<g>
							<polygon style="fill:#FF6600;" points="395.729,173.99 380.978,157.447 366.363,173.99 335.616,173.99 365.674,140.215 
								335.616,106.436 367.33,106.436 382.218,122.841 396.555,106.436 427.165,106.436 397.248,140.076 427.576,173.99 							"/>
							<polygon style="fill:#FF6600;" points="276.547,173.99 276.547,67.572 335.616,67.572 335.616,91.293 301.566,91.293 
								301.566,106.436 335.616,106.436 335.616,129.258 301.566,129.258 301.566,150.206 335.616,150.206 335.616,173.99 							
								"/>
						</g>
						<path style="fill:#4D148C;" d="M251.629,67.572v43.551h-0.273c-5.518-6.34-12.41-8.545-20.406-8.545
							c-16.382,0-28.721,11.137-33.052,25.859c-4.942-16.221-17.681-26.162-36.571-26.162c-15.342,0-27.454,6.885-33.778,18.105
							v-13.945H95.84V91.293h34.605V67.572H67.572V173.99H95.84v-44.732h28.174c-0.84,3.286-1.289,6.804-1.289,10.518
							c0,22.198,16.958,37.775,38.602,37.775c18.199,0,30.193-8.545,36.536-24.122h-24.224c-3.277,4.682-5.762,6.07-12.312,6.07
							c-7.595,0-14.146-6.626-14.146-14.482h49.324c2.139,17.632,15.875,32.837,34.723,32.837c8.131,0,15.577-3.999,20.128-10.752
							h0.273v6.889h24.918V67.572H251.629z M147.967,129.576c1.572-6.758,6.814-11.177,13.36-11.177
							c7.204,0,12.18,4.282,13.489,11.177C175.367,129.576,147.967,129.576,147.967,129.576z M236.507,157.789
							c-9.184,0-14.893-8.56-14.893-17.496c0-9.551,4.966-18.735,14.893-18.735c10.296,0,14.395,9.185,14.395,18.735
							C250.902,149.352,246.556,157.789,236.507,157.789z"/>
					</g>
				</g>
			</g>
			<g>
				<path style="fill:#4D148C;" d="M276.552,227.205v-38.141h22.663v3.17h-19.229v13.682h18.489v3.17h-18.489v14.95h20.021v3.169
					H276.552z"/>
				<path style="fill:#4D148C;" d="M322.297,200.686h3.328l-9.509,12.837l10.355,13.682h-4.174l-8.505-11.516l-8.346,11.516h-3.592
					c0.053-0.053,0.053-0.053,0.106-0.105l10.142-13.471l-9.773-12.942h4.226l7.766,10.671L322.297,200.686z"/>
				<path style="fill:#4D148C;" d="M332.078,237.348h-3.17v-30.693c0.053-2.061-0.158-4.174-0.264-5.969h3.275l0.159,3.909
					l0.105,0.105c1.849-3.117,5.547-4.807,9.086-4.807c7.871,0,10.883,7.079,10.883,13.947c0,6.656-3.012,14.158-10.724,14.158
					c-3.856,0-7.079-1.743-9.245-4.912h-0.105V237.348z M341.112,225.092c6.076,0,7.607-6.709,7.607-11.622
					c0-5.071-2.06-10.671-8.083-10.671c-6.181,0-8.558,5.124-8.558,10.512C332.078,219.334,334.191,225.092,341.112,225.092z"/>
				<path style="fill:#4D148C;" d="M359.143,227.205h-3.17v-20.549c0.053-2.061-0.159-4.174-0.264-5.969h3.275l0.159,3.909h0.105
					c0.951-2.694,3.328-4.596,5.97-4.702c1.056-0.053,2.113,0,3.169,0.053v3.064c-0.634-0.053-1.32-0.212-1.954-0.212
					c-4.702,0-7.185,3.381-7.29,8.452V227.205z"/>
				<path style="fill:#4D148C;" d="M372.524,214.685c0.106,5.652,2.695,10.407,9.193,10.407c3.751,0,6.868-2.694,7.66-6.339h3.328
					c-1.638,6.339-5.6,9.244-11.991,9.244c-7.924,0-11.622-6.814-11.622-14.052c0-7.184,3.962-14.052,11.833-14.052
					c8.875,0,12.098,6.498,12.098,14.792H372.524z M389.588,211.779c-0.37-5.124-3.117-8.98-8.611-8.98
					c-5.177,0-7.924,4.331-8.347,8.98H389.588z"/>
				<path style="fill:#4D148C;" d="M405.435,199.893c5.018,0,9.244,1.743,9.667,7.343h-3.434c-0.316-3.328-3.275-4.438-6.551-4.438
					c-2.958,0-5.97,1.163-5.97,4.279c0,3.909,5.125,3.539,12.309,6.075c2.746,0.951,4.49,3.329,4.49,6.181
					c0,5.969-5.547,8.663-11.147,8.663c-4.596,0-9.878-2.165-9.984-8.029h3.434c0.264,3.962,3.751,5.124,7.343,5.124
					c3.381,0,6.921-1.585,6.921-5.283c0-3.803-4.173-4.438-8.4-5.388c-4.173-1.004-8.399-2.219-8.399-7.132
					C395.714,201.796,400.785,199.893,405.435,199.893z"/>
				<path style="fill:#4D148C;" d="M428.792,199.893c5.018,0,9.245,1.743,9.667,7.343h-3.434c-0.317-3.328-3.276-4.438-6.551-4.438
					c-2.958,0-5.97,1.163-5.97,4.279c0,3.909,5.125,3.539,12.309,6.075c2.746,0.951,4.49,3.329,4.49,6.181
					c0,5.969-5.547,8.663-11.147,8.663c-4.596,0-9.879-2.165-9.984-8.029h3.434c0.264,3.962,3.751,5.124,7.343,5.124
					c3.381,0,6.921-1.585,6.921-5.283c0-3.803-4.173-4.438-8.4-5.388c-4.173-1.004-8.4-2.219-8.4-7.132
					C419.072,201.796,424.143,199.893,428.792,199.893z"/>
			</g>
			<g>
				<path style="fill:#FF6600;" d="M463.24,161.29c0-6.145-4.361-10.652-10.378-10.652c-6.008,0-10.379,4.508-10.379,10.652
					s4.371,10.648,10.379,10.648C458.879,171.938,463.24,167.434,463.24,161.29L463.24,161.29L463.24,161.29z M450.138,161.834
					v6.967h-2.254v-15.367h5.595c3.273,0,4.783,1.436,4.783,4.234c0,1.71-1.167,3.077-2.666,3.273v0.074
					c1.293,0.205,1.774,1.367,2.048,3.483c0.206,1.362,0.48,3.754,0.96,4.302h-2.665c-0.618-1.436-0.549-3.484-1.03-5.188
					c-0.401-1.299-1.087-1.779-2.587-1.779H450.138L450.138,161.834z M452.931,159.854c2.185,0,2.802-1.161,2.802-2.185
					c0-1.225-0.617-2.181-2.802-2.181h-2.793v4.366H452.931L452.931,159.854z M440.024,161.29c0-7.58,6.017-12.701,12.838-12.701
					c6.831,0,12.838,5.12,12.838,12.701c0,7.581-6.008,12.701-12.838,12.701C446.041,173.99,440.024,168.87,440.024,161.29
					L440.024,161.29z"/>
			</g>
		</g>
	</g>
</g>
</svg>
